PathFileType	4	(X/Y/Z)	C:/Users/dbak576/Desktop/Duncan Bakke Modelling Files/H20s1/Static_H20s1.trc	
DataRate	CameraRate	NumFrames	NumMarkers	Units	OrigDataRate	OrigDataStartFrame	OrigNumFrames	
200.00	200.00	4	61	mm	200.00	633	672	
Frame#	Time	LFHD			RFHD			LBHD			RBHD			C7			T10			CLAV			STRN			RBack			LASI			RASI			LPSI			RPSI			RACR1			RUA1			RElbow			RElbowM			RFA1			RWRR			RWRU			RCAR			LACR1			LUA1			LElbow			LElbowM			LFA1			LWRR			LWRU			LCAR			RTH1			RTH3			RTH2			RTH4			RLFC			RMFC			RTB1			RTB3			RTB2			RTB4			RLMAL			RMMAL			RCAL			RMT1			RMT5			RToe			LTH1			LTH3			LTH2			LTH4			LLFC			LMFC			LTB1			LTB3			LTB2			LTB4			LLMAL			LMMAL			LCAL			LMT1			LMT5			LToe			
		X1	Y1	Z1	X2	Y2	Z2	X3	Y3	Z3	X4	Y4	Z4	X5	Y5	Z5	X6	Y6	Z6	X7	Y7	Z7	X8	Y8	Z8	X9	Y9	Z9	X10	Y10	Z10	X11	Y11	Z11	X12	Y12	Z12	X13	Y13	Z13	X14	Y14	Z14	X15	Y15	Z15	X16	Y16	Z16	X17	Y17	Z17	X18	Y18	Z18	X19	Y19	Z19	X20	Y20	Z20	X21	Y21	Z21	X22	Y22	Z22	X23	Y23	Z23	X24	Y24	Z24	X25	Y25	Z25	X26	Y26	Z26	X27	Y27	Z27	X28	Y28	Z28	X29	Y29	Z29	X30	Y30	Z30	X31	Y31	Z31	X32	Y32	Z32	X33	Y33	Z33	X34	Y34	Z34	X35	Y35	Z35	X36	Y36	Z36	X37	Y37	Z37	X38	Y38	Z38	X39	Y39	Z39	X40	Y40	Z40	X41	Y41	Z41	X42	Y42	Z42	X43	Y43	Z43	X44	Y44	Z44	X45	Y45	Z45	X46	Y46	Z46	X47	Y47	Z47	X48	Y48	Z48	X49	Y49	Z49	X50	Y50	Z50	X51	Y51	Z51	X52	Y52	Z52	X53	Y53	Z53	X54	Y54	Z54	X55	Y55	Z55	X56	Y56	Z56	X57	Y57	Z57	X58	Y58	Z58	X59	Y59	Z59	X60	Y60	Z60	X61	Y61	Z61	

253	1.260	-25.82312	-338.67697	1650.83350	55.39641	-342.91702	1656.09521	-59.37154	-514.16809	1600.47583	79.15657	-521.90887	1599.53821	8.86792	-528.84619	1455.50012	-9.24537	-558.16675	1134.77893	1.42668	-376.50394	1400.98132	-3.85808	-339.62830	1237.41675	90.49134	-590.65613	1354.90295	-158.58545	-358.50922	966.44879	146.91068	-366.90891	959.85419	-69.20412	-536.37408	977.19641	34.57613	-546.44855	976.58893	120.38931	-493.49969	1458.84241	291.10260	-480.91086	1414.80017	412.59869	-448.93478	1392.65051	395.84628	-382.35437	1336.29626	540.53900	-400.61267	1440.01367	647.76349	-306.93494	1496.50684	658.36847	-328.32227	1422.95105	714.38733	-314.94070	1467.54346	-132.79385	-499.79935	1464.86621	-312.18259	-480.39148	1415.17017	-426.42624	-444.23529	1389.49817	-394.89133	-405.78485	1330.33398	-554.62671	-390.26337	1465.52747	-638.21545	-306.61020	1506.76526	-656.93542	-311.81381	1429.67261	-709.18774	-315.79410	1491.65442	202.97246	-441.79523	764.90753	200.97180	-443.89731	575.73065	185.03822	-372.49567	671.59546	204.86238	-442.22549	668.00159	196.49457	-447.74707	472.05850	65.62811	-463.04019	439.10248	132.58801	-412.81137	369.33347	155.44972	-440.74969	182.22101	215.56812	-446.29883	287.13904	146.21671	-424.28067	278.12085	199.56561	-512.82880	88.48446	115.69808	-476.56128	92.36826	159.71138	-558.98560	35.05288	140.67802	-352.03754	38.62557	227.06100	-389.38925	33.56133	167.36830	-295.44159	26.06513	-210.54349	-408.91165	769.90747	-207.53134	-429.43900	583.33337	-175.03439	-352.51993	665.05847	-214.25105	-419.83636	672.45020	-203.96779	-452.30011	469.38101	-78.95370	-473.71503	435.43069	-160.09694	-420.24625	371.00467	-170.63216	-463.43704	190.10976	-228.48416	-476.42798	292.20581	-165.00458	-443.31256	280.89603	-204.50902	-547.42328	79.90478	-120.10654	-509.51917	85.84299	-160.19669	-593.83813	32.85576	-143.51593	-379.53812	35.91983	-232.89633	-412.99237	31.86522	-160.34508	-333.02240	26.86582 
254	1.265	-25.83046	-338.67621	1650.85071	55.40193	-342.90988	1656.09399	-59.36898	-514.19891	1600.47620	79.11760	-521.92877	1599.49927	8.89240	-528.84753	1455.48181	-9.26230	-558.17493	1134.78491	1.43955	-376.50122	1400.97302	-3.84723	-339.65060	1237.40747	90.48495	-590.70197	1354.90100	-158.55655	-358.51740	966.44720	146.88257	-366.94061	959.84235	-69.18786	-536.42487	977.17035	34.59141	-546.42786	976.58490	120.40854	-493.54623	1458.84912	291.00229	-480.94955	1414.82947	412.60886	-448.94293	1392.67383	395.84552	-382.37286	1336.29858	540.36603	-400.66986	1440.07410	647.76276	-306.92169	1496.51172	658.35516	-328.32266	1422.97827	714.50848	-315.00012	1467.61365	-132.80736	-499.81757	1464.86572	-312.19623	-480.49625	1415.12891	-426.43423	-444.23431	1389.50110	-394.88016	-405.77585	1330.33203	-554.66174	-390.28250	1465.47449	-638.20837	-306.61865	1506.79456	-656.94904	-311.83701	1429.67798	-709.20203	-315.81158	1491.60632	202.96954	-441.81531	764.90607	201.00104	-443.90613	575.72955	185.05411	-372.50070	671.60468	204.91768	-442.24744	668.12286	196.49034	-447.75006	472.04498	65.63875	-463.03918	439.10342	132.45363	-412.89352	369.28000	155.45657	-440.74835	182.22504	215.65520	-446.28171	287.13248	146.22169	-424.29510	278.12811	199.53784	-512.81641	88.50052	115.82147	-476.52710	92.35381	159.72906	-558.99066	35.06713	140.66496	-352.05756	38.60703	227.05495	-389.39490	33.56252	167.36607	-295.44525	26.06066	-210.53792	-408.91092	769.88049	-207.51389	-429.45303	583.33295	-175.01727	-352.51587	665.05634	-214.19189	-419.88721	672.48425	-203.95804	-452.30478	469.37149	-78.94911	-473.73712	435.39722	-160.09517	-420.26511	370.99237	-170.61133	-463.43845	190.11809	-228.47003	-476.43420	292.21088	-164.93930	-443.32242	280.89243	-204.52118	-547.38696	79.87865	-120.13843	-509.54825	85.84421	-160.23634	-593.88116	32.85962	-143.52994	-379.53613	35.93390	-232.66986	-412.90109	31.79514	-160.33919	-333.00845	26.86050 
255	1.270	-25.82354	-338.69006	1650.84351	55.37502	-342.96268	1656.09949	-59.61118	-514.49585	1600.58191	79.11841	-521.99902	1599.48181	8.88660	-528.89471	1455.47607	-9.27206	-558.19214	1134.79944	1.44150	-376.50558	1400.97302	-3.83410	-339.66858	1237.40991	90.47858	-590.72211	1354.90405	-158.57700	-358.55164	966.45367	146.88568	-366.94235	959.84741	-69.18122	-536.45227	977.17035	34.58154	-546.45868	976.59149	120.40675	-493.56662	1458.85022	290.81055	-481.01688	1414.87158	412.59140	-448.95071	1392.68188	395.84552	-382.37958	1336.29041	540.26074	-400.69150	1440.07703	647.76581	-306.89835	1496.53589	658.36926	-328.30719	1422.99744	714.42395	-314.90994	1467.56653	-132.80116	-499.84055	1464.86743	-312.19672	-480.52591	1415.11987	-426.40863	-444.22360	1389.49622	-394.87289	-405.80545	1330.33911	-554.65424	-390.29047	1465.47156	-638.21558	-306.60904	1506.82922	-656.95129	-311.85159	1429.67029	-709.19171	-315.80557	1491.58875	202.97137	-441.82016	764.90704	201.03024	-443.90677	575.72229	185.06586	-372.50229	671.60468	204.92781	-442.26450	668.07990	196.47287	-447.75549	472.04309	65.64992	-463.03485	439.10223	132.49217	-412.87860	369.31293	155.46982	-440.74585	182.21057	215.72556	-446.26300	287.14224	146.21417	-424.30014	278.14215	199.52348	-512.81165	88.45608	116.01232	-476.47656	92.27802	159.75363	-558.98163	35.05862	140.67177	-352.04672	38.61167	227.08479	-389.38345	33.58482	167.34395	-295.42172	26.12006	-210.54382	-408.91504	769.90137	-207.51273	-429.46222	583.33716	-174.99422	-352.51505	665.03882	-214.13039	-419.89636	672.46570	-203.95074	-452.31567	469.40588	-78.95237	-473.76031	435.38461	-160.09856	-420.23682	371.01633	-170.60999	-463.44077	190.13943	-228.46866	-476.44016	292.20447	-164.94916	-443.33072	280.88028	-204.52499	-547.38879	79.89712	-120.16312	-509.56052	85.81654	-160.18642	-593.81696	32.87962	-143.55154	-379.56003	35.96293	-232.87206	-413.09024	31.88145	-160.33415	-333.00662	26.87416 
256	1.275	-25.82007	-338.72894	1650.83411	55.35428	-342.98886	1656.11121	-59.80519	-514.66577	1600.65686	79.10590	-522.04401	1599.47632	8.87275	-528.91467	1455.47839	-9.27302	-558.20880	1134.78345	1.43737	-376.50760	1400.97681	-3.82579	-339.67844	1237.41406	90.48653	-590.72131	1354.88782	-158.56650	-358.57120	966.47827	146.88676	-366.94650	959.82880	-69.15633	-536.45648	977.19464	34.56357	-546.49487	976.59979	120.39973	-493.53757	1458.83447	290.91464	-480.98288	1414.83972	412.59305	-448.94836	1392.68042	395.87161	-382.40225	1336.32043	540.24469	-400.68875	1440.06348	647.75830	-306.88043	1496.53613	658.38757	-328.25974	1423.00098	714.26935	-314.84137	1467.49329	-132.77779	-499.85715	1464.86206	-312.20151	-480.54803	1415.11572	-426.37619	-444.23071	1389.46802	-394.86069	-405.83566	1330.33313	-554.63409	-390.28763	1465.45837	-638.23022	-306.62128	1506.82202	-656.94019	-311.83063	1429.65100	-709.18127	-315.79315	1491.56567	202.97504	-441.81592	764.90894	201.02367	-443.90887	575.71661	185.07521	-372.49609	671.60193	204.93927	-442.31027	668.08771	196.45836	-447.75378	472.04367	65.66105	-463.02399	439.11115	132.56812	-412.81720	369.33963	155.47813	-440.74805	182.21600	215.65811	-446.29199	287.13586	146.19667	-424.30560	278.15387	199.53172	-512.81799	88.47749	115.72743	-476.56064	92.35503	159.74081	-558.96667	35.04504	140.67572	-352.03799	38.62180	227.06319	-389.40039	33.58245	167.31725	-295.39502	26.16259	-210.52110	-408.92145	769.92426	-207.50475	-429.46896	583.35699	-174.98941	-352.51675	665.03778	-214.18336	-419.87506	672.43732	-203.95622	-452.32849	469.42398	-78.94452	-473.75293	435.44821	-160.10239	-420.24274	371.00400	-170.61688	-463.43759	190.13370	-228.46452	-476.43558	292.19287	-165.07576	-443.32947	280.89340	-204.50778	-547.37030	79.88895	-120.15534	-509.56863	85.80463	-160.20337	-593.81903	32.88649	-143.54871	-379.55096	35.97850	-233.11896	-413.21408	31.98510	-160.34421	-333.03226	26.88418 
